<?xml version="1.0" encoding="UTF-8"?>
<svg id="Layer_1" xmlns="http://www.w3.org/2000/svg" xmlns:xlink="http://www.w3.org/1999/xlink" viewBox="0 0 1280 3085">
  <defs>
    <style>
      .cls-1 {
        fill: none;
      }

      .cls-2 {
        fill: #f9e563;
      }

      .cls-3 {
        fill: #ef875f;
      }

      .cls-4 {
        fill: #1b2100;
      }

      .cls-5 {
        fill: #908ee5;
      }

      .cls-6 {
        clip-path: url(#clippath-1);
      }

      .cls-7 {
        clip-path: url(#clippath-3);
      }

      .cls-8 {
        clip-path: url(#clippath-4);
      }

      .cls-9 {
        clip-path: url(#clippath-2);
      }

      .cls-10 {
        clip-path: url(#clippath-7);
      }

      .cls-11 {
        clip-path: url(#clippath-6);
      }

      .cls-12 {
        clip-path: url(#clippath-5);
      }

      .cls-13 {
        fill: #fff;
      }

      .cls-14 {
        fill: #83bbf8;
      }

      .cls-15 {
        fill: #b3e1fa;
      }

      .cls-16 {
        fill: #ffe55f;
      }

      .cls-17 {
        fill: #fdf5a7;
      }

      .cls-18 {
        clip-path: url(#clippath);
      }
    </style>
    <clipPath id="clippath">
      <rect class="cls-1" width="1284.05" height="3085"/>
    </clipPath>
    <clipPath id="clippath-1">
      <rect class="cls-1" width="1284.05" height="3085"/>
    </clipPath>
    <clipPath id="clippath-2">
      <rect class="cls-1" width="1284.05" height="3085"/>
    </clipPath>
    <clipPath id="clippath-3">
      <rect class="cls-1" width="1284.05" height="3085"/>
    </clipPath>
    <clipPath id="clippath-4">
      <rect class="cls-1" width="1284.05" height="3085"/>
    </clipPath>
    <clipPath id="clippath-5">
      <rect class="cls-1" width="1284.05" height="3085"/>
    </clipPath>
    <clipPath id="clippath-6">
      <rect class="cls-1" width="1284.05" height="3085"/>
    </clipPath>
    <clipPath id="clippath-7">
      <rect class="cls-1" width="1284.05" height="3085"/>
    </clipPath>
  </defs>
  <rect class="cls-15" width="1280" height="735.6"/>
  <rect class="cls-17" y="711" width="1280" height="1169.7"/>
  <rect class="cls-13" y="1710" width="1284.05" height="1375"/>
  <g>
    <g class="cls-18">
      <g>
        <path class="cls-13" d="M1258.47,405.3c-5.12-182.8-130.51-312.9-223-346.4-68.12-24.7-195.62-3.4-276.87,46-198.33,120.5-168.03,224.1-168.03,224.1,0,0-100.02-119.7-267.14-85.4-183.08,37.6-219.49,187.1-219.49,187.1,0,0-237.65-93.7-300.75,122-56.48,193.1,145.46,244,145.46,244,0,0,30.4,180.6,231.73,223.2,199.53,42.2,290.92-90.7,290.92-90.7,0,0,133.12,132.3,349.1,120.6,218.19-11.9,313.69-165.5,313.69-165.5,0,0,41.13,29.9,130.11-13.9,56.58-27.9,61.59-100.7,61.59-100.7,0,0,91.49,7.9,149.27-70.5,68.92-93.4,30.7-173.4-1.1-217.6-74.54-104-215.48-76.3-215.48-76.3Z"/>
        <g>
          <path class="cls-4" d="M110.55,417.6c1.5.7,3.01,1,4.51.9,3.91-.1,7.62-2.4,9.43-6.2,16.45-36.3,55.48-102.6,131.92-139,101.12-48.1,229.12-26,326.33,56.2,3.21,2.7,7.62,3.3,11.44,1.5,3.71-1.8,6.12-5.6,6.02-9.8-.6-20.1,2.51-50.6,20.67-81.7,12.14-20.9,29.49-38.9,50.06-52,4.92-3.1,6.32-9.6,3.21-14.5s-9.63-6.3-14.55-3.2c-23.37,15-43.04,35.4-56.88,59.2-14.85,25.5-20.87,50.6-22.77,71.2-101.42-76.5-229.83-94.8-332.65-45.8-82.56,39.3-124.49,110.4-142.05,149.3-2.41,5.3,0,11.5,5.32,13.9Z"/>
          <path class="cls-4" d="M802.83,91.6c32.8-16.6,119.78-52.1,218.89-22.8,106.54,31.5,186.89,124.6,209.66,242.8,1,5.1,5.52,8.6,10.53,8.5.6,0,1.2-.1,1.81-.2,5.72-1.1,9.43-6.6,8.33-12.3-24.28-125.9-110.25-225.2-224.41-259-106.34-31.5-199.43,6.4-234.44,24.2-5.22,2.6-7.22,9-4.61,14.1,2.71,5.3,9.03,7.3,14.24,4.7Z"/>
          <path class="cls-4" d="M1244.53,352.3l1.5,32.6c.3,5.7,5.02,10.1,10.73,10h.3c5.82-.3,10.33-5.2,10.03-11l-1.5-32.6c-.3-5.8-4.92-10.3-11.03-10-5.82.3-10.33,5.2-10.03,11Z"/>
          <path class="cls-4" d="M1482.18,474.1c-42.53-59.1-106.74-74.5-132.32-78.4-5.72-.9-11.14,3.1-12.04,8.8-.9,5.7,3.11,11.1,8.83,12,22.97,3.5,80.55,17.2,118.37,69.8,43.64,60.7,41.93,147.4-4.01,206.1-60.79,77.7-163.72,64.2-164.82,64.1-5.72-.8-11.14,3.2-11.94,8.9-.8,5.7,3.21,11.1,8.93,11.9,1.1.2,8.53,1.1,19.96,1.3-1.71,1.4-2.91,3.2-3.51,5.5-3.41,13.3-18.46,58.9-66.31,84.8-46.05,24.9-91.19,14.2-103.93,10.3-3.91-1.2-8.33,0-11.03,3.1-34.51,39.4-131.31,133.1-284.2,153.5-189.2,25.2-325.73-77.9-363.15-110.1-4.21-3.6-10.43-3.4-14.35.5-77.95,78-192.01,108.2-297.84,78.7C4.92,959.1-40.63,798.8-42.53,792c-1-3.6-3.81-6.4-7.32-7.4-79.05-22-136.93-88.2-144.05-164.8-6.92-74.8,41.53-169.9,145.16-198.7,87.78-24.4,162.21,25.2,176.26,35.4,4.71,3.4,11.34,2.4,14.75-2.3,3.41-4.7,2.41-11.3-2.31-14.7-15.45-11.2-97.21-65.7-194.31-38.6-85.57,23.8-170.84,109.3-160.41,220.9,7.72,83.4,69.22,155.7,153.79,181.5,10.03,31.4,64.7,177.4,224.41,221.9,110.05,30.7,228.42,1.1,311.48-77.3,43.04,35.2,159.8,116.2,320.11,112.9,16.95-.4,34.31-1.6,52.16-4,153.89-20.6,253.4-112,292.92-155.6,20.26,5,66.51,11.7,113.56-13.8,55.37-29.9,72.63-82.6,76.64-98,1.1-4.2-.5-8.4-3.71-10.9,39.32-1.7,105.13-14.1,151.28-73,51.36-66,53.27-163.3,4.31-231.4Z"/>
          <path class="cls-4" d="M706.53,149.4c7.42-.2,13.44-6.2,13.24-13.4s-6.32-13-13.84-12.8c-7.42.2-13.44,6.2-13.24,13.4.2,7.2,6.42,13,13.84,12.8Z"/>
          <ellipse class="cls-4" cx="748.18" cy="113" rx="13.84" ry="13.7" transform="translate(-1.57 10.91) rotate(-.83)"/>
        </g>
      </g>
    </g>
    <g class="cls-6">
      <path class="cls-3" d="M1213.63,2698.2c-7.52-2.5-14.75.1-17.05,4.9-2.41,4.9-.3,10.9,2.31,13.8,4.01,4.4,8.53,3.8,14.24,7.7,8.83,6.1,10.43,13.2,14.65,13.3,5.12.2,8.13-12.4,9.33-22.8.6-5.2,2.21-18.1-5.52-23.8-.6-.5-6.22-4.5-11.74-2-4.92,2.4-6.02,8.3-6.22,8.9Z"/>
    </g>
    <g class="cls-9">
      <path class="cls-16" d="M351.51,2960.2c-6.22,1.3-15.15-3.7-30.2-13.7-.7-.5-1.5-1-2.21-1.5-9.63,12.6-25.78,27.8-36.41,24-7.82-2.8-6.42-14.2-5.12-25.2.3-2.7.6-5.2.7-6.9,0-1.6.1-3.3.3-5-4.31-1.2-8.33-3-12.24-5.2-12.94-7.4-18.46-14.1-16.85-20.5,1.81-7.6,12.44-9.9,24.08-11.7,1-.2,1.91-.3,2.61-.4,2.91-.5,5.42-.8,7.62-1,1.81-.2,4.61-.4,5.72-.9,0-.8,0-1.8.1-3,.8-11.6,1.4-16.7,2.71-21.6l.3-1.2c1.61-6,3.11-11.7,8.53-13.1,7.12-1.9,13.94,5,24.58,24.9,23.27-4.4,34.11-3.4,37.32,3.5,1.71,3.8,2.51,9.8-3.71,17.3-2.81,3.4-6.52,6.2-9.43,8.5-.8.6-1.71,1.3-2.41,1.9,1.1,6.2,2.21,12.6,4.11,18.4,6.02,18,7.72,23.9,5.52,28.2-1.1,2-2.91,3.4-5.12,4-.2.2-.3.2-.5.2ZM347.1,2951.9h0ZM316.2,2932.3c2.71-.6,6.22,1.7,11.24,5.1,3.71,2.5,13.54,9,19.06,11.3-1-4.3-3.51-11.6-5.32-17.4-2.31-6.9-3.61-14.3-4.71-20.8l-.8-4.6,1.71-2c1.4-1.6,3.41-3.2,5.72-5,2.71-2.1,5.72-4.4,7.72-6.8,1.2-1.5,2.51-3.5,2.41-5.1-1.71-.5-7.82-1.4-25.68,2-4.61.9-9.13-1.3-11.44-5.4-6.02-11.4-9.73-16.2-11.74-18.2-.4,1.2-.8,2.7-1.1,3.9l-.3,1.2c-1.1,4.1-1.71,8.7-2.41,19.5-.1.9,0,1.6,0,2.2,0,1.5.1,3.5-1.1,5.4-3.21,5.3-8.93,5.9-14.55,6.4-2.11.2-4.31.4-6.82.8-.8.1-1.71.3-2.81.5-7.52,1.2-12.44,2.3-14.55,3.5,1.1,1.5,4.21,4.4,11.14,8.4,4.21,2.4,8.83,4.1,13.74,5.1l5.02,1-.7,5.1c-.4,2.9-.6,5.9-.7,8.8-.1,2.1-.4,4.9-.8,7.9-.4,3.5-1.2,10.2-.9,13.4,4.41-1.3,15.85-10,25.28-23.8,1.2-1.3,2.31-2.1,3.41-2.4Z"/>
    </g>
    <g class="cls-7">
      <path class="cls-16" d="M1253.16,2039.3c-7.12-1.5-14.04-10.7-25.18-28.1-.5-.8-1.1-1.7-1.61-2.6-15.85,8.7-39.73,17.2-49.05,8.3-6.82-6.5-.1-17.7,6.32-28.6,1.61-2.7,3.11-5.2,3.91-6.9.8-1.7,1.71-3.4,2.61-5.1-3.91-3.2-7.32-6.9-10.33-11-10.03-13.6-12.74-23.1-8.13-29.2,5.42-7.1,17.56-4.6,30.5-1.1,1.1.3,2.11.6,2.91.8,3.21.8,6.02,1.7,8.43,2.5,1.91.6,5.02,1.7,6.32,1.7.4-.8.8-1.9,1.4-3.1,6.22-11.8,9.13-16.8,12.84-21.3l.9-1.1c4.41-5.5,8.63-10.7,14.95-9.8,8.23,1.3,12.24,11.7,14.14,37.2,26.38,6,37.12,12,37.32,20.7.1,4.7-1.91,11.4-11.84,16.4-4.41,2.2-9.63,3.5-13.74,4.6-1.2.3-2.41.6-3.41.9-1.71,7-3.51,14.1-4.11,21.1-2.11,21.5-2.91,28.5-7.32,31.9-2.01,1.6-4.61,2.3-7.22,1.8-.3.1-.5,0-.6,0ZM1252.25,2028.6h0ZM1229.18,1994c3.11.7,5.72,4.7,9.33,10.5,2.71,4.3,9.93,15.6,14.75,20.5.9-5,1.71-13.7,2.41-20.6.8-8.2,2.91-16.5,4.71-23.9l1.3-5.2,2.71-1.3c2.21-1,5.02-1.7,8.33-2.5,3.71-.9,7.93-2,11.14-3.6,2.01-1,4.21-2.5,4.82-4.2-1.61-1.3-7.52-5-27.69-9.6-5.22-1.2-8.93-5.6-9.33-10.9-1.1-14.6-2.71-21.4-3.81-24.4-1,1.1-2.11,2.5-3.01,3.6l-.9,1.1c-3.11,3.8-5.72,8.3-11.54,19.3-.5.9-.8,1.6-1,2.3-.7,1.6-1.5,3.6-3.71,5.2-5.82,4.1-12.04,2-18.06,0-2.31-.8-4.71-1.6-7.42-2.2-.9-.2-1.91-.5-3.21-.8-8.43-2.3-14.04-3.3-16.75-3,.5,2.1,2.31,6.6,7.72,13.9,3.31,4.5,7.32,8.4,12.04,11.6l4.82,3.3-3.01,5c-1.71,2.9-3.31,5.8-4.82,8.8-1,2.2-2.71,5-4.41,7.9-2.01,3.4-6.02,10.1-7.12,13.6,5.22.7,21.17-3.1,37.32-13.2,1.61-1.1,3.11-1.4,4.41-1.2Z"/>
    </g>
    <g class="cls-8">
      <path class="cls-5" d="M43.54,1982.7h-.2c-28.99-1.2-54.27-19.9-61.39-45.5-9.73-35,17.76-63.8,38.62-74.6,9.83-5.1,35.31-15.5,59.59-1.8,14.75,8.3,31,26.3,28.39,50-2.51,22.8-22.27,41.6-45.95,43.7-19.46,1.7-42.63-7.3-49.16-28-5.22-16.3.5-39.1,18.96-47.4,9.63-4.3,21.47-4.1,31.8.7,8.13,3.8,13.94,9.9,15.95,16.8,1.91,6.6.7,15-2.91,21.1-2.81,4.6-6.72,7.6-11.34,8.6-8.73,1.9-18.46-3.7-23.78-13.6-1.4-2.6-.4-5.8,2.21-7.2,2.61-1.4,5.82-.4,7.22,2.2,3.41,6.3,8.83,8.9,12.14,8.2,2.11-.4,3.51-2.2,4.41-3.6,2.21-3.6,2.91-8.9,1.81-12.7-1.1-3.9-4.82-7.6-10.13-10-7.42-3.4-16.25-3.7-22.97-.7-12.64,5.7-16.95,22.4-13.14,34.5,5.42,17,26.18,21.6,38.02,20.6,18.36-1.6,34.21-16.7,36.21-34.3,2.11-18.5-11.14-32.9-22.97-39.5-19.76-11.1-41.13-2.3-49.46,2-17.05,8.9-41.23,33.6-33.2,62.3,5.92,21.2,27.09,36.7,51.56,37.7,2.91.1,5.22,2.6,5.12,5.5-.2,2.7-2.51,5-5.42,5Z"/>
    </g>
    <g class="cls-12">
      <path class="cls-5" d="M1010.89,2991.3c-.1,0-.1.1-.2.1-23.47,13.5-52.77,11.2-71.12-5.5-25.08-22.8-17.76-59.1-6.72-78,5.22-8.9,20.16-29.7,46.15-31,15.75-.7,37.62,5.5,47.25,25.4,9.33,19.3,3.21,43.9-14.45,57.2-14.45,11-37.32,15.3-52.77,2.3-12.24-10.3-19.06-31.1-8.63-46.8,5.42-8.2,14.95-13.9,25.48-15.2,8.33-1.1,15.95.9,20.97,5.3,4.71,4.2,8.03,11.5,8.23,18.1.1,5-1.5,9.3-4.71,12.4-5.92,5.8-16.45,6.2-25.48,1.1-2.41-1.4-3.21-4.4-1.91-6.8,1.3-2.4,4.41-3.2,6.82-1.9,5.82,3.3,11.34,2.7,13.64.5,1.4-1.4,1.71-3.5,1.61-5-.1-3.9-2.11-8.5-4.92-10.9-2.81-2.5-7.62-3.6-13.04-2.9-7.62,1-14.65,5.1-18.46,10.8-7.12,10.7-2.21,26.1,6.82,33.7,12.74,10.7,31.5,4.1,40.33-2.6,13.64-10.4,18.76-30.1,11.54-45-7.62-15.6-25.08-20.4-37.82-19.8-21.07,1-33.61,18.6-38.02,26.1-9.03,15.5-15.75,46.9,4.82,65.6,15.25,13.8,39.63,15.6,59.39,4.2,2.41-1.4,5.42-.5,6.82,1.8,1.4,2.4.7,5.4-1.6,6.8Z"/>
    </g>
    <g class="cls-11">
      <path class="cls-3" d="M81.16,2488.9s-5.12-15.5-11.14-16.2-12.24,7.4-7.62,21.3c4.61,13.9,12.24,24,16.25,23.6s26.68-10.9,27.59-24.5c.9-13.5-15.95-16.2-25.08-4.2Z"/>
    </g>
    <g class="cls-10">
      <g>
        <path class="cls-14" d="M1166.88,2395.4h-.4c-2.51-.1-10.23-.3-35.61-34.1l-3.01-3.9c-10.23-13.5-13.24-17.6-7.72-25.6,4.71-6.8,13.74-13.5,22.47-20l1.91-1.4c.5-3.6-3.31-14.8-5.42-20.9-4.41-12.9-6.62-19.4-1.71-22.9h0c1.5-1.1,4.01-2,7.72-.2,10.13,4.7,39.32,35.4,40.63,53.3.4,5.5-1.71,10-5.92,12.7-5.32,3.4-9.03,7.2-13.64,12-1,1-2.01,2-3.11,3.1.5,2.9,3.31,9.7,5.22,14.4,6.12,14.9,9.63,24.3,5.62,30-.8,1.3-3.01,3.5-7.02,3.5ZM1147.72,2281.1c.5,1.7,1.1,3.4,1.61,4.9,5.02,14.6,9.23,27.3,2.31,32.4l-2.61,1.9c-8.03,6-16.35,12.1-20.06,17.5-.7,1-.8,1.3-.8,1.4.2,1.1,3.81,5.8,8.33,11.8l3.01,4c13.94,18.5,21.67,25.6,25.28,28.3-1-4.7-4.21-12.6-6.22-17.3-5.22-12.8-8.33-20.5-3.91-24.9,1.4-1.4,2.81-2.8,4.01-4.1,4.92-5.1,9.23-9.4,15.55-13.5.5-.3,1.3-.8,1-3.6-1.4-10.8-17.35-29.7-27.49-38.8Z"/>
        <path class="cls-2" d="M1229.98,2249c-1.1,5.3-6.12,13.2-7.82,17.5-3.61,9.2-4.71,13.8-9.13,16.2-2.61,1.4-6.72,2.1-8.83,0-2.51-2.5-1.91-8.3-.5-10.1,6.92-8.7,27.69-30.6,26.28-23.6Z"/>
        <path class="cls-2" d="M1202.19,2254.7c.2,2.7-1.91,7.4-2.31,9.8-.9,5-.8,7.4-3.41,9.6-1.61,1.3-4.31,2.7-6.12,2.2-2.21-.5-2.81-3.2-2.21-4.4,3.21-5.6,13.74-20.7,14.04-17.2Z"/>
      </g>
    </g>
  </g>
</svg>