<?xml version="1.0" encoding="utf-8"?>
<!-- Generator: Adobe Illustrator 27.8.1, SVG Export Plug-In . SVG Version: 6.00 Build 0)  -->
<svg version="1.1" id="Layer_1" xmlns="http://www.w3.org/2000/svg" xmlns:xlink="http://www.w3.org/1999/xlink" x="0px" y="0px"
	 viewBox="0 0 1280 3085" style="enable-background:new 0 0 1280 3085;" xml:space="preserve">
<style type="text/css">
	.st0{fill:#B3E1FA;}
	.st1{fill:#FDF5A7;}
	.st2{fill:#FFFFFF;}
	.st3{clip-path:url(#SVGID_00000106843111478320353360000007225003560058551685_);}
	.st4{fill:#1B2100;}
	.st5{fill:#EF875F;}
	.st6{fill:#FFE55F;}
	.st7{fill:#908EE5;}
	.st8{fill:#83BBF8;}
	.st9{fill:#F9E563;}
</style>
<rect class="st0" width="1275.9" height="735.6"/>
<rect x="4.1" y="711" class="st1" width="1275.9" height="1169.7"/>
<rect y="1710" class="st2" width="1275.9" height="1375"/>
<g>
	<defs>
		<rect id="SVGID_1_" width="1280" height="3085"/>
	</defs>
	<clipPath id="SVGID_00000034049590060142073510000012045885033764248712_">
		<use xlink:href="#SVGID_1_"  style="overflow:visible;"/>
	</clipPath>
	<g style="clip-path:url(#SVGID_00000034049590060142073510000012045885033764248712_);">
		<path class="st2" d="M1254.5,405.3c-5.1-182.8-130.1-312.9-222.3-346.4c-67.9-24.7-195-3.4-276,46
			C558.5,225.4,588.7,329,588.7,329S489,209.3,322.4,243.6c-182.5,37.6-218.8,187.1-218.8,187.1s-236.9-93.7-299.8,122
			c-56.3,193.1,145,244,145,244s30.3,180.6,231,223.2c198.9,42.2,290-90.7,290-90.7s132.7,132.3,348,120.6
			c217.5-11.9,312.7-165.5,312.7-165.5s41,29.9,129.7-13.9c56.4-27.9,61.4-100.7,61.4-100.7s91.2,7.9,148.8-70.5
			c68.7-93.4,30.6-173.4-1.1-217.6C1395,377.6,1254.5,405.3,1254.5,405.3z"/>
		<g>
			<path class="st4" d="M110.2,417.6c1.5,0.7,3,1,4.5,0.9c3.9-0.1,7.6-2.4,9.4-6.2c16.4-36.3,55.3-102.6,131.5-139
				c100.8-48.1,228.4-26,325.3,56.2c3.2,2.7,7.6,3.3,11.4,1.5c3.7-1.8,6.1-5.6,6-9.8c-0.6-20.1,2.5-50.6,20.6-81.7
				c12.1-20.9,29.4-38.9,49.9-52c4.9-3.1,6.3-9.6,3.2-14.5c-3.1-4.9-9.6-6.3-14.5-3.2c-23.3,15-42.9,35.4-56.7,59.2
				c-14.8,25.5-20.8,50.6-22.7,71.2C477,223.7,349,205.4,246.5,254.4c-82.3,39.3-124.1,110.4-141.6,149.3
				C102.5,409,104.9,415.2,110.2,417.6z"/>
			<path class="st4" d="M800.3,91.6C833,75,919.7,39.5,1018.5,68.8c106.2,31.5,186.3,124.6,209,242.8c1,5.1,5.5,8.6,10.5,8.5
				c0.6,0,1.2-0.1,1.8-0.2c5.7-1.1,9.4-6.6,8.3-12.3c-24.2-125.9-109.9-225.2-223.7-259c-106-31.5-198.8,6.4-233.7,24.2
				c-5.2,2.6-7.2,9-4.6,14.1C788.8,92.2,795.1,94.2,800.3,91.6z"/>
			<path class="st4" d="M1240.6,352.3l1.5,32.6c0.3,5.7,5,10.1,10.7,10c0.1,0,0.2,0,0.3,0c5.8-0.3,10.3-5.2,10-11l-1.5-32.6
				c-0.3-5.8-4.9-10.3-11-10C1244.8,341.6,1240.3,346.5,1240.6,352.3z"/>
			<path class="st4" d="M1288.2,411.9l24.6,1.6c0.3,0,0.6,0,0.9,0c5.4-0.1,9.9-4.3,10.3-9.8c0.4-5.8-4-10.8-9.8-11.2l-24.6-1.6
				c-5.9-0.3-10.8,4-11.2,9.8C1278.1,406.5,1282.5,411.5,1288.2,411.9z"/>
			<path class="st4" d="M1477.5,474.1c-42.4-59.1-106.4-74.5-131.9-78.4c-5.7-0.9-11.1,3.1-12,8.8c-0.9,5.7,3.1,11.1,8.8,12
				c22.9,3.5,80.3,17.2,118,69.8c43.5,60.7,41.8,147.4-4,206.1c-60.6,77.7-163.2,64.2-164.3,64.1c-5.7-0.8-11.1,3.2-11.9,8.9
				c-0.8,5.7,3.2,11.1,8.9,11.9c1.1,0.2,8.5,1.1,19.9,1.3c-1.7,1.4-2.9,3.2-3.5,5.5c-3.4,13.3-18.4,58.9-66.1,84.8
				c-45.9,24.9-90.9,14.2-103.6,10.3c-3.9-1.2-8.3,0-11,3.1c-34.4,39.4-130.9,133.1-283.3,153.5c-188.6,25.2-324.7-77.9-362-110.1
				c-4.2-3.6-10.4-3.4-14.3,0.5c-77.7,78-191.4,108.2-296.9,78.7C4.9,959.1-40.5,798.8-42.4,792c-1-3.6-3.8-6.4-7.3-7.4
				c-78.8-22-136.5-88.2-143.6-164.8c-6.9-74.8,41.4-169.9,144.7-198.7c87.5-24.4,161.7,25.2,175.7,35.4c4.7,3.4,11.3,2.4,14.7-2.3
				c3.4-4.7,2.4-11.3-2.3-14.7c-15.4-11.2-96.9-65.7-193.7-38.6c-85.3,23.8-170.3,109.3-159.9,220.9c7.7,83.4,69,155.7,153.3,181.5
				c10,31.4,64.5,177.4,223.7,221.9c109.7,30.7,227.7,1.1,310.5-77.3c42.9,35.2,159.3,116.2,319.1,112.9c16.9-0.4,34.2-1.6,52-4
				c153.4-20.6,252.6-112,292-155.6c20.2,5,66.3,11.7,113.2-13.8c55.2-29.9,72.4-82.6,76.4-98c1.1-4.2-0.5-8.4-3.7-10.9
				c39.2-1.7,104.8-14.1,150.8-73C1524.4,639.5,1526.3,542.2,1477.5,474.1z"/>
			<path class="st4" d="M704.3,149.4c7.4-0.2,13.4-6.2,13.2-13.4c-0.2-7.2-6.3-13-13.8-12.8c-7.4,0.2-13.4,6.2-13.2,13.4
				C690.7,143.8,696.9,149.6,704.3,149.4z"/>
			
				<ellipse transform="matrix(0.9998 -2.089576e-02 2.089576e-02 0.9998 -2.1983 15.6088)" class="st4" cx="745.8" cy="113" rx="13.8" ry="13.7"/>
		</g>
	</g>
	<g style="clip-path:url(#SVGID_00000034049590060142073510000012045885033764248712_);">
		<path class="st5" d="M1209.8,2698.2c-7.5-2.5-14.7,0.1-17,4.9c-2.4,4.9-0.3,10.9,2.3,13.8c4,4.4,8.5,3.8,14.2,7.7
			c8.8,6.1,10.4,13.2,14.6,13.3c5.1,0.2,8.1-12.4,9.3-22.8c0.6-5.2,2.2-18.1-5.5-23.8c-0.6-0.5-6.2-4.5-11.7-2
			C1211.1,2691.7,1210,2697.6,1209.8,2698.2z"/>
	</g>
	<g style="clip-path:url(#SVGID_00000034049590060142073510000012045885033764248712_);">
		<path class="st6" d="M350.4,2960.2c-6.2,1.3-15.1-3.7-30.1-13.7c-0.7-0.5-1.5-1-2.2-1.5c-9.6,12.6-25.7,27.8-36.3,24
			c-7.8-2.8-6.4-14.2-5.1-25.2c0.3-2.7,0.6-5.2,0.7-6.9c0-1.6,0.1-3.3,0.3-5c-4.3-1.2-8.3-3-12.2-5.2c-12.9-7.4-18.4-14.1-16.8-20.5
			c1.8-7.6,12.4-9.9,24-11.7c1-0.2,1.9-0.3,2.6-0.4c2.9-0.5,5.4-0.8,7.6-1c1.8-0.2,4.6-0.4,5.7-0.9c0-0.8,0-1.8,0.1-3
			c0.8-11.6,1.4-16.7,2.7-21.6l0.3-1.2c1.6-6,3.1-11.7,8.5-13.1c7.1-1.9,13.9,5,24.5,24.9c23.2-4.4,34-3.4,37.2,3.5
			c1.7,3.8,2.5,9.8-3.7,17.3c-2.8,3.4-6.5,6.2-9.4,8.5c-0.8,0.6-1.7,1.3-2.4,1.9c1.1,6.2,2.2,12.6,4.1,18.4c6,18,7.7,23.9,5.5,28.2
			c-1.1,2-2.9,3.4-5.1,4C350.7,2960.2,350.6,2960.2,350.4,2960.2z M346,2951.9L346,2951.9L346,2951.9z M315.2,2932.3
			c2.7-0.6,6.2,1.7,11.2,5.1c3.7,2.5,13.5,9,19,11.3c-1-4.3-3.5-11.6-5.3-17.4c-2.3-6.9-3.6-14.3-4.7-20.8l-0.8-4.6l1.7-2
			c1.4-1.6,3.4-3.2,5.7-5c2.7-2.1,5.7-4.4,7.7-6.8c1.2-1.5,2.5-3.5,2.4-5.1c-1.7-0.5-7.8-1.4-25.6,2c-4.6,0.9-9.1-1.3-11.4-5.4
			c-6-11.4-9.7-16.2-11.7-18.2c-0.4,1.2-0.8,2.7-1.1,3.9l-0.3,1.2c-1.1,4.1-1.7,8.7-2.4,19.5c-0.1,0.9,0,1.6,0,2.2
			c0,1.5,0.1,3.5-1.1,5.4c-3.2,5.3-8.9,5.9-14.5,6.4c-2.1,0.2-4.3,0.4-6.8,0.8c-0.8,0.1-1.7,0.3-2.8,0.5c-7.5,1.2-12.4,2.3-14.5,3.5
			c1.1,1.5,4.2,4.4,11.1,8.4c4.2,2.4,8.8,4.1,13.7,5.1l5,1l-0.7,5.1c-0.4,2.9-0.6,5.9-0.7,8.8c-0.1,2.1-0.4,4.9-0.8,7.9
			c-0.4,3.5-1.2,10.2-0.9,13.4c4.4-1.3,15.8-10,25.2-23.8C313,2933.4,314.1,2932.6,315.2,2932.3z"/>
	</g>
	<g style="clip-path:url(#SVGID_00000034049590060142073510000012045885033764248712_);">
		<path class="st6" d="M1249.2,2039.3c-7.1-1.5-14-10.7-25.1-28.1c-0.5-0.8-1.1-1.7-1.6-2.6c-15.8,8.7-39.6,17.2-48.9,8.3
			c-6.8-6.5-0.1-17.7,6.3-28.6c1.6-2.7,3.1-5.2,3.9-6.9c0.8-1.7,1.7-3.4,2.6-5.1c-3.9-3.2-7.3-6.9-10.3-11
			c-10-13.6-12.7-23.1-8.1-29.2c5.4-7.1,17.5-4.6,30.4-1.1c1.1,0.3,2.1,0.6,2.9,0.8c3.2,0.8,6,1.7,8.4,2.5c1.9,0.6,5,1.7,6.3,1.7
			c0.4-0.8,0.8-1.9,1.4-3.1c6.2-11.8,9.1-16.8,12.8-21.3l0.9-1.1c4.4-5.5,8.6-10.7,14.9-9.8c8.2,1.3,12.2,11.7,14.1,37.2
			c26.3,6,37,12,37.2,20.7c0.1,4.7-1.9,11.4-11.8,16.4c-4.4,2.2-9.6,3.5-13.7,4.6c-1.2,0.3-2.4,0.6-3.4,0.9
			c-1.7,7-3.5,14.1-4.1,21.1c-2.1,21.5-2.9,28.5-7.3,31.9c-2,1.6-4.6,2.3-7.2,1.8C1249.5,2039.4,1249.3,2039.3,1249.2,2039.3z
			 M1248.3,2028.6L1248.3,2028.6L1248.3,2028.6z M1225.3,1994c3.1,0.7,5.7,4.7,9.3,10.5c2.7,4.3,9.9,15.6,14.7,20.5
			c0.9-5,1.7-13.7,2.4-20.6c0.8-8.2,2.9-16.5,4.7-23.9l1.3-5.2l2.7-1.3c2.2-1,5-1.7,8.3-2.5c3.7-0.9,7.9-2,11.1-3.6
			c2-1,4.2-2.5,4.8-4.2c-1.6-1.3-7.5-5-27.6-9.6c-5.2-1.2-8.9-5.6-9.3-10.9c-1.1-14.6-2.7-21.4-3.8-24.4c-1,1.1-2.1,2.5-3,3.6
			l-0.9,1.1c-3.1,3.8-5.7,8.3-11.5,19.3c-0.5,0.9-0.8,1.6-1,2.3c-0.7,1.6-1.5,3.6-3.7,5.2c-5.8,4.1-12,2-18,0
			c-2.3-0.8-4.7-1.6-7.4-2.2c-0.9-0.2-1.9-0.5-3.2-0.8c-8.4-2.3-14-3.3-16.7-3c0.5,2.1,2.3,6.6,7.7,13.9c3.3,4.5,7.3,8.4,12,11.6
			l4.8,3.3l-3,5c-1.7,2.9-3.3,5.8-4.8,8.8c-1,2.2-2.7,5-4.4,7.9c-2,3.4-6,10.1-7.1,13.6c5.2,0.7,21.1-3.1,37.2-13.2
			C1222.5,1994.1,1224,1993.8,1225.3,1994z"/>
	</g>
	<g style="clip-path:url(#SVGID_00000034049590060142073510000012045885033764248712_);">
		<path class="st7" d="M43.4,1982.7c-0.1,0-0.1,0-0.2,0c-28.9-1.2-54.1-19.9-61.2-45.5c-9.7-35,17.7-63.8,38.5-74.6
			c9.8-5.1,35.2-15.5,59.4-1.8c14.7,8.3,30.9,26.3,28.3,50c-2.5,22.8-22.2,41.6-45.8,43.7c-19.4,1.7-42.5-7.3-49-28
			c-5.2-16.3,0.5-39.1,18.9-47.4c9.6-4.3,21.4-4.1,31.7,0.7c8.1,3.8,13.9,9.9,15.9,16.8c1.9,6.6,0.7,15-2.9,21.1
			c-2.8,4.6-6.7,7.6-11.3,8.6c-8.7,1.9-18.4-3.7-23.7-13.6c-1.4-2.6-0.4-5.8,2.2-7.2c2.6-1.4,5.8-0.4,7.2,2.2
			c3.4,6.3,8.8,8.9,12.1,8.2c2.1-0.4,3.5-2.2,4.4-3.6c2.2-3.6,2.9-8.9,1.8-12.7c-1.1-3.9-4.8-7.6-10.1-10
			c-7.4-3.4-16.2-3.7-22.9-0.7c-12.6,5.7-16.9,22.4-13.1,34.5c5.4,17,26.1,21.6,37.9,20.6c18.3-1.6,34.1-16.7,36.1-34.3
			c2.1-18.5-11.1-32.9-22.9-39.5c-19.7-11.1-41-2.3-49.3,2c-17,8.9-41.1,33.6-33.1,62.3c5.9,21.2,27,36.7,51.4,37.7
			c2.9,0.1,5.2,2.6,5.1,5.5C48.6,1980.4,46.3,1982.7,43.4,1982.7z"/>
	</g>
	<g style="clip-path:url(#SVGID_00000034049590060142073510000012045885033764248712_);">
		<path class="st7" d="M1007.7,2991.3c-0.1,0-0.1,0.1-0.2,0.1c-23.4,13.5-52.6,11.2-70.9-5.5c-25-22.8-17.7-59.1-6.7-78
			c5.2-8.9,20.1-29.7,46-31c15.7-0.7,37.5,5.5,47.1,25.4c9.3,19.3,3.2,43.9-14.4,57.2c-14.4,11-37.2,15.3-52.6,2.3
			c-12.2-10.3-19-31.1-8.6-46.8c5.4-8.2,14.9-13.9,25.4-15.2c8.3-1.1,15.9,0.9,20.9,5.3c4.7,4.2,8,11.5,8.2,18.1
			c0.1,5-1.5,9.3-4.7,12.4c-5.9,5.8-16.4,6.2-25.4,1.1c-2.4-1.4-3.2-4.4-1.9-6.8c1.3-2.4,4.4-3.2,6.8-1.9c5.8,3.3,11.3,2.7,13.6,0.5
			c1.4-1.4,1.7-3.5,1.6-5c-0.1-3.9-2.1-8.5-4.9-10.9c-2.8-2.5-7.6-3.6-13-2.9c-7.6,1-14.6,5.1-18.4,10.8
			c-7.1,10.7-2.2,26.1,6.8,33.7c12.7,10.7,31.4,4.1,40.2-2.6c13.6-10.4,18.7-30.1,11.5-45c-7.6-15.6-25-20.4-37.7-19.8
			c-21,1-33.5,18.6-37.9,26.1c-9,15.5-15.7,46.9,4.8,65.6c15.2,13.8,39.5,15.6,59.2,4.2c2.4-1.4,5.4-0.5,6.8,1.8
			C1010.7,2986.9,1010,2989.9,1007.7,2991.3z"/>
	</g>
	<g style="clip-path:url(#SVGID_00000034049590060142073510000012045885033764248712_);">
		<path class="st5" d="M80.9,2488.9c0,0-5.1-15.5-11.1-16.2c-6-0.7-12.2,7.4-7.6,21.3c4.6,13.9,12.2,24,16.2,23.6
			s26.6-10.9,27.5-24.5C106.8,2479.6,90,2476.9,80.9,2488.9z"/>
	</g>
	<g style="clip-path:url(#SVGID_00000034049590060142073510000012045885033764248712_);">
		<g>
			<path class="st8" d="M1163.2,2395.4c-0.1,0-0.3,0-0.4,0c-2.5-0.1-10.2-0.3-35.5-34.1l-3-3.9c-10.2-13.5-13.2-17.6-7.7-25.6
				c4.7-6.8,13.7-13.5,22.4-20l1.9-1.4c0.5-3.6-3.3-14.8-5.4-20.9c-4.4-12.9-6.6-19.4-1.7-22.9l0,0c1.5-1.1,4-2,7.7-0.2
				c10.1,4.7,39.2,35.4,40.5,53.3c0.4,5.5-1.7,10-5.9,12.7c-5.3,3.4-9,7.2-13.6,12c-1,1-2,2-3.1,3.1c0.5,2.9,3.3,9.7,5.2,14.4
				c6.1,14.9,9.6,24.3,5.6,30C1169.4,2393.2,1167.2,2395.4,1163.2,2395.4z M1144.1,2281.1c0.5,1.7,1.1,3.4,1.6,4.9
				c5,14.6,9.2,27.3,2.3,32.4l-2.6,1.9c-8,6-16.3,12.1-20,17.5c-0.7,1-0.8,1.3-0.8,1.4c0.2,1.1,3.8,5.8,8.3,11.8l3,4
				c13.9,18.5,21.6,25.6,25.2,28.3c-1-4.7-4.2-12.6-6.2-17.3c-5.2-12.8-8.3-20.5-3.9-24.9c1.4-1.4,2.8-2.8,4-4.1
				c4.9-5.1,9.2-9.4,15.5-13.5c0.5-0.3,1.3-0.8,1-3.6C1170.1,2309.1,1154.2,2290.2,1144.1,2281.1z"/>
		</g>
		<g>
			<path class="st9" d="M1226.1,2249c-1.1,5.3-6.1,13.2-7.8,17.5c-3.6,9.2-4.7,13.8-9.1,16.2c-2.6,1.4-6.7,2.1-8.8,0
				c-2.5-2.5-1.9-8.3-0.5-10.1C1206.8,2263.9,1227.5,2242,1226.1,2249z"/>
		</g>
		<g>
			<path class="st9" d="M1198.4,2254.7c0.2,2.7-1.9,7.4-2.3,9.8c-0.9,5-0.8,7.4-3.4,9.6c-1.6,1.3-4.3,2.7-6.1,2.2
				c-2.2-0.5-2.8-3.2-2.2-4.4C1187.6,2266.3,1198.1,2251.2,1198.4,2254.7z"/>
		</g>
	</g>
</g>
</svg>
